<svg width="27" height="24" viewBox="0 0 27 24" fill="none" xmlns="http://www.w3.org/2000/svg">
<path d="M24.0477 10.0197H6.84351L13.4366 3.41661C13.7649 3.03325 13.9365 2.54012 13.917 2.03576C13.8975 1.53141 13.6884 1.05298 13.3315 0.696083C12.9746 0.339186 12.4962 0.130106 11.9918 0.110625C11.4875 0.0911444 10.9944 0.262697 10.611 0.591001L0.5911 10.6109C0.496307 10.7048 0.412288 10.809 0.340603 10.9215C0.306897 10.9693 0.276756 11.0196 0.250424 11.0718L0.150225 11.2722L0.0901056 11.4726C0.0843453 11.5292 0.0843453 11.5863 0.0901056 11.6429C0.0388124 11.9009 0.0388124 12.1665 0.0901056 12.4245C0.0843453 12.4811 0.0843453 12.5382 0.0901056 12.5948L0.150225 12.7952C0.150225 12.8654 0.220364 12.9255 0.250424 12.9956C0.276756 13.0479 0.306897 13.0981 0.340603 13.1459C0.412288 13.2585 0.496307 13.3626 0.5911 13.4565L10.611 23.4764C10.9944 23.8047 11.4875 23.9763 11.9918 23.9568C12.4962 23.9373 12.9746 23.7282 13.3315 23.3713C13.6884 23.0144 13.8975 22.536 13.917 22.0317C13.9365 21.5273 13.7649 21.0342 13.4366 20.6508L6.84351 14.0277H24.0477C24.5791 14.0277 25.0889 13.8165 25.4647 13.4407C25.8405 13.0649 26.0516 12.5552 26.0516 12.0237C26.0516 11.4922 25.8405 10.9825 25.4647 10.6067C25.0889 10.2308 24.5791 10.0197 24.0477 10.0197Z" fill="#3D3E79"/>
</svg>
