<svg width="7" height="8" viewBox="0 0 7 8" fill="none" xmlns="http://www.w3.org/2000/svg">
<path fill-rule="evenodd" clip-rule="evenodd" d="M1.13482 0.617401L5.90223 0.617371C6.07089 0.617371 6.23944 0.642142 6.41557 0.724258C6.6267 0.822676 6.73866 0.977801 6.8171 1.09252C6.8232 1.10145 6.82891 1.11064 6.83419 1.12005C6.92642 1.28423 6.97396 1.46148 6.97396 1.65215C6.97396 1.83333 6.93085 2.03071 6.83419 2.20274C6.83328 2.20441 6.83234 2.20602 6.8314 2.20766L3.81942 7.38158C3.753 7.49569 3.63075 7.56566 3.49873 7.56521C3.36671 7.56475 3.24495 7.49387 3.17934 7.3793L0.222677 2.21643C0.221827 2.21504 0.220977 2.21364 0.220127 2.21221C0.152461 2.10071 0.0478203 1.92828 0.0295149 1.70577C0.0126971 1.50113 0.0586879 1.2961 0.161508 1.11832C0.264327 0.940522 0.419119 0.79839 0.605299 0.711387C0.804928 0.618099 1.00723 0.617401 1.13482 0.617401ZM3.13047 1.35651H1.13482C1.00371 1.35651 0.953374 1.36458 0.91819 1.38103C0.869528 1.40374 0.828667 1.44111 0.801346 1.48835C0.774024 1.53561 0.761669 1.59038 0.766162 1.6452C0.768742 1.67662 0.781553 1.71257 0.857112 1.83718C0.85869 1.83979 0.860238 1.84243 0.861756 1.84507L3.13047 5.80665V1.35651ZM3.8696 1.35651V5.82623L6.19086 1.83879C6.21706 1.79119 6.23482 1.7224 6.23482 1.65215C6.23482 1.59517 6.22301 1.54569 6.1966 1.49469C6.16889 1.45483 6.15201 1.43374 6.13789 1.41929C6.12578 1.40693 6.11646 1.40031 6.10328 1.39418C6.0484 1.36859 5.99224 1.35651 5.90223 1.35651H3.8696Z" fill="#01009C"/>
</svg>
